<?xml version="1.0" encoding="iso-8859-1"?>
<!-- Generator: Adobe Illustrator 16.0.0, SVG Export Plug-In . SVG Version: 6.00 Build 0)  -->
<!DOCTYPE svg PUBLIC "-//W3C//DTD SVG 1.1//EN" "http://www.w3.org/Graphics/SVG/1.1/DTD/svg11.dtd">
<svg version="1.1" id="Layer_1" xmlns="http://www.w3.org/2000/svg" xmlns:xlink="http://www.w3.org/1999/xlink" x="0px" y="0px"
	 width="164.415px" height="32.002px" viewBox="0 0 164.415 32.002" style="enable-background:new 0 0 164.415 32.002;"
	 xml:space="preserve">
<path style="fill:#F2F1F0;" d="M17.95,14.051L4.715,0.809c-1.077-1.076-2.823-1.076-3.901,0c-1.078,1.077-1.078,2.824-0.001,3.902
	l11.286,11.29L0.808,27.292c-1.077,1.077-1.077,2.824,0,3.901c0.538,0.539,1.244,0.809,1.951,0.809c0.705,0,1.41-0.27,1.949-0.809
	L17.95,17.953C19.027,16.875,19.027,15.129,17.95,14.051z"/>
<path style="fill:#F2F1F0;" d="M97.398,0.809c-1.077-1.076-2.823-1.076-3.901,0c-1.077,1.078-1.077,2.824,0,3.902l11.286,11.285
	L93.497,27.288c-1.077,1.077-1.076,2.824,0.001,3.901c0.538,0.538,1.244,0.808,1.95,0.808s1.413-0.27,1.951-0.809l13.236-13.242
	c1.076-1.077,1.076-2.824-0.001-3.9L97.398,0.809z"/>
<path style="fill:#F2F1F0;" d="M40.353,17.893c0.539,0.546,1.25,0.819,1.962,0.819c0.7,0,1.402-0.266,1.938-0.798L57.446,4.872
	c1.082-1.072,1.092-2.818,0.021-3.902c-1.071-1.082-2.818-1.092-3.901-0.021L40.374,13.993C39.29,15.063,39.28,16.81,40.353,17.893z
	"/>
<path style="fill:#F2F1F0;" d="M70.91,0.815c-1.077-1.077-2.824-1.077-3.901,0L47.153,20.672c-1.078,1.076-1.078,2.824,0,3.9
	c0.537,0.539,1.244,0.809,1.949,0.809c0.706,0,1.412-0.27,1.951-0.809L70.91,4.717C71.987,3.639,71.987,1.893,70.91,0.815z"/>
<path style="fill:#F2F1F0;" d="M86.87,7.43L67.015,27.288c-1.077,1.076-1.077,2.822,0,3.9c0.539,0.539,1.245,0.809,1.951,0.809
	c0.705,0,1.411-0.27,1.95-0.809l19.856-19.856c1.078-1.077,1.078-2.823,0-3.901C89.695,6.353,87.948,6.353,86.87,7.43z"/>
<path style="fill:#F2F1F0;" d="M70.91,14.051c-1.077-1.077-2.824-1.077-3.901,0L53.772,27.288c-1.076,1.076-1.076,2.822,0,3.9
	c0.54,0.539,1.246,0.809,1.951,0.809c0.706,0,1.412-0.27,1.951-0.809L70.91,17.953C71.987,16.875,71.987,15.128,70.91,14.051z"/>
<path style="fill:#F2F1F0;" d="M114.896,12.409c0.7,0,1.402-0.266,1.94-0.797l6.816-6.74c1.083-1.072,1.094-2.818,0.021-3.901
	c-1.07-1.084-2.816-1.093-3.9-0.022l-6.817,6.74c-1.083,1.071-1.093,2.818-0.022,3.9C113.475,12.135,114.186,12.409,114.896,12.409z
	"/>
<path style="fill:#F2F1F0;" d="M130.497,7.43c-1.078-1.077-2.825-1.077-3.902,0.001l-13.229,13.235
	c-1.077,1.078-1.077,2.824,0.001,3.902c0.538,0.537,1.244,0.807,1.949,0.807c0.707,0,1.413-0.27,1.952-0.809l13.229-13.235
	C131.575,10.253,131.573,8.506,130.497,7.43z"/>
<path style="fill:#F2F1F0;" d="M133.216,14.051l-13.234,13.236c-1.078,1.076-1.078,2.822,0,3.9c0.538,0.539,1.244,0.809,1.949,0.809
	c0.707,0,1.412-0.27,1.951-0.809l13.236-13.235c1.077-1.077,1.077-2.824,0-3.901C136.04,12.974,134.294,12.974,133.216,14.051z"/>
<path style="fill:#F2F1F0;" d="M22.62,12.137c0.707,0,1.412-0.27,1.951-0.809l6.615-6.618c1.077-1.077,1.076-2.824-0.001-3.901
	c-1.077-1.078-2.823-1.076-3.901,0.001l-6.615,6.618c-1.077,1.078-1.077,2.825,0.001,3.902
	C21.208,11.869,21.914,12.137,22.62,12.137z"/>
<path style="fill:#F2F1F0;" d="M33.141,16L44.428,4.711c1.077-1.078,1.077-2.824-0.001-3.902s-2.824-1.076-3.901,0L14.054,27.288
	c-1.077,1.076-1.076,2.824,0,3.9c0.539,0.539,1.245,0.809,1.951,0.809c0.707,0,1.412-0.27,1.951-0.809l11.283-11.285l11.293,11.291
	c0.538,0.539,1.245,0.809,1.951,0.809c0.705,0,1.411-0.27,1.95-0.809c1.077-1.077,1.077-2.824,0-3.901L33.141,16z"/>
<path style="fill:#F2F1F0;" d="M163.606,0.808c-1.076-1.077-2.824-1.077-3.901,0l-11.291,11.29l-11.29-11.29
	c-1.078-1.077-2.824-1.077-3.902,0c-1.077,1.077-1.077,2.823,0,3.901l13.242,13.241c0.539,0.538,1.244,0.808,1.95,0.808
	s1.413-0.27,1.95-0.808l13.242-13.241C164.685,3.631,164.685,1.885,163.606,0.808z"/>
</svg>
